<svg width="70" height="70" viewBox="0 0 70 70" fill="none" xmlns="http://www.w3.org/2000/svg">
<path d="M46 31.3334C47.9449 31.3334 49.8102 32.106 51.1854 33.4812C52.5607 34.8565 53.3333 36.7218 53.3333 38.6667M64.3333 49.6667V24L53.3333 13M5.66667 64.3334V13C5.66667 10.9907 6.47333 9.17202 7.78233 7.84835M20.3333 5.66669H35C36.9449 5.66669 38.8102 6.4393 40.1854 7.81457C41.5607 9.18984 42.3333 11.0551 42.3333 13V27.6667M42.3333 42.3334V64.3334M2 64.3334H46" stroke="#ED8FDD" stroke-width="4" stroke-linecap="round" stroke-linejoin="round"/>
<path d="M57 16.6667V20.3333C57 21.3058 57.3863 22.2384 58.0739 22.9261C58.7616 23.6137 59.6942 24 60.6667 24H64.3333M5.66667 31.3333H31.3333M2 2L68 68" stroke="#ED8FDD" stroke-width="4" stroke-linecap="round" stroke-linejoin="round"/>
</svg>
